<svg width="25" height="24" viewBox="0 0 25 24" fill="none" xmlns="http://www.w3.org/2000/svg">
    <path
        d="M6.30111 4.55146L8.78453 2.99932C9.29041 2.68315 9.91103 2.6093 10.477 2.79795L12.1175 3.34481C12.5281 3.48165 12.9719 3.48165 13.3825 3.34481L15.023 2.79795C15.589 2.6093 16.2096 2.68314 16.7155 2.99932L19.1989 4.55146C19.7836 4.91693 20.1389 5.55788 20.1389 6.24746V6.77785C20.1389 7.40736 20.4353 8.00014 20.9389 8.37785L21.45 8.76118C21.9536 9.13889 22.25 9.73167 22.25 10.3612V12.5834C22.25 13.2129 21.9536 13.8057 21.45 14.1834L20.9389 14.5667C20.4353 14.9444 20.1389 15.5372 20.1389 16.1667V17.7527C20.1389 18.4423 19.7837 19.0832 19.1989 19.4487L16.7155 21.0008C16.2096 21.317 15.589 21.3908 15.023 21.2022L13.3825 20.6553C12.9719 20.5185 12.5281 20.5185 12.1175 20.6553L10.477 21.2022C9.91103 21.3908 9.29041 21.317 8.78453 21.0008L6.30111 19.4487C5.71635 19.0832 5.36111 18.4423 5.36111 17.7527V16.1667C5.36111 15.5372 5.06472 14.9444 4.56111 14.5667L4.05 14.1834C3.54639 13.8057 3.25 13.2129 3.25 12.5834V10.3612C3.25 9.73167 3.54639 9.13889 4.05 8.76118L4.56111 8.37785C5.06472 8.00014 5.36111 7.40736 5.36111 6.77785V6.24745C5.36111 5.55787 5.71635 4.91693 6.30111 4.55146Z"
        stroke="currentColor" stroke-linecap="round" stroke-linejoin="round" />
    <path
        d="M12.75 4V7.17157C12.75 7.70201 12.9607 8.21071 13.3358 8.58579L14.5 9.75M12.75 20V16.8284C12.75 16.298 12.5393 15.7893 12.1642 15.4142L11 14.25"
        stroke="currentColor" stroke-linecap="round" stroke-linejoin="round" />
    <circle cx="9.75" cy="13" r="1.5" stroke="currentColor" stroke-linecap="round" stroke-linejoin="round" />
    <circle cx="15.75" cy="11" r="1.5" stroke="currentColor" stroke-linecap="round" stroke-linejoin="round" />
</svg>