<svg width="25" height="24" viewBox="0 0 25 24" fill="none" xmlns="http://www.w3.org/2000/svg">
    <path
        d="M12 2.73725L10.3507 2.18747C9.85546 2.0224 9.31241 2.08701 8.86977 2.36367L5.62806 4.38973C5.11639 4.70953 4.80556 5.27035 4.80556 5.87373V7.38893C4.80556 7.46762 4.76851 7.54171 4.70556 7.58893L3.45 8.53059C3.00934 8.86109 2.75 9.37977 2.75 9.93059V13.0417C2.75 13.5925 3.00934 14.1112 3.45 14.4417L4.70556 15.3834C4.76851 15.4306 4.80556 15.5047 4.80556 15.5834V18.1263C4.80556 18.7297 5.11639 19.2906 5.62806 19.6103L8.86977 21.6364C9.31242 21.9131 9.85546 21.9777 10.3507 21.8126L12 21.2628V16.9142C12 16.8479 11.9737 16.7843 11.9268 16.7374L10.3381 15.1487C10.1543 15.2143 9.95631 15.25 9.75 15.25C8.7835 15.25 8 14.4665 8 13.5C8 12.5335 8.7835 11.75 9.75 11.75C10.7165 11.75 11.5 12.5335 11.5 13.5C11.5 13.7063 11.4643 13.9043 11.3987 14.0881L12.9874 15.6768C13.3156 16.005 13.5 16.4501 13.5 16.9142V21.2628L15.1493 21.8126C15.6445 21.9777 16.1876 21.9131 16.6302 21.6364L19.8719 19.6103C20.3836 19.2906 20.6944 18.7297 20.6944 18.1263V15.5834C20.6944 15.5047 20.7315 15.4306 20.7944 15.3834L22.05 14.4417C22.4907 14.1112 22.75 13.5925 22.75 13.0417V9.93059C22.75 9.37977 22.4907 8.86109 22.05 8.53059L20.7944 7.58893C20.7315 7.54171 20.6944 7.46762 20.6944 7.38893V5.87373C20.6944 5.27035 20.3836 4.70953 19.8719 4.38973L16.6302 2.36367C16.1876 2.08701 15.6445 2.0224 15.1493 2.18747L13.5 2.73725V7.08579C13.5 7.15209 13.5263 7.21568 13.5732 7.26256L15.1619 8.85126C15.3457 8.7857 15.5437 8.75 15.75 8.75C16.7165 8.75 17.5 9.5335 17.5 10.5C17.5 11.4665 16.7165 12.25 15.75 12.25C14.7835 12.25 14 11.4665 14 10.5C14 10.2937 14.0357 10.0957 14.1013 9.91192L12.5126 8.32322C12.1844 7.99503 12 7.54991 12 7.08579V2.73725Z"
        fill="currentColor" />
</svg>