<svg width="24" height="24" viewBox="0 0 24 24" fill="none" xmlns="http://www.w3.org/2000/svg">
    <path
        d="M14.6619 8.00949L14.6203 7.26064L14.6619 8.00949ZM9.33811 15.9908L8.63056 16.2395L9.33811 15.9908ZM12.75 13.5001C12.3358 13.5001 12 13.8359 12 14.2501C12 14.6643 12.3358 15.0001 12.75 15.0001V13.5001ZM17.25 15.0001C17.6642 15.0001 18 14.6643 18 14.2501C18 13.8359 17.6642 13.5001 17.25 13.5001V15.0001ZM9 15.2501C6.1005 15.2501 3.75 12.8996 3.75 10.0001H2.25C2.25 13.728 5.27208 16.7501 9 16.7501V15.2501ZM3.75 10.0001C3.75 7.10063 6.1005 4.75012 9 4.75012V3.25012C5.27208 3.25012 2.25 6.2722 2.25 10.0001H3.75ZM20.25 14.0001C20.25 16.8996 17.8995 19.2501 15 19.2501V20.7501C18.7279 20.7501 21.75 17.728 21.75 14.0001H20.25ZM15 8.75012C17.8995 8.75012 20.25 11.1006 20.25 14.0001H21.75C21.75 10.2722 18.7279 7.25012 15 7.25012V8.75012ZM9.75 14.0001C9.75 11.2002 11.9423 8.91171 14.7035 8.75833L14.6203 7.26064C11.0687 7.45793 8.25 10.3996 8.25 14.0001H9.75ZM14.7035 8.75833C14.8016 8.75289 14.9004 8.75012 15 8.75012V7.25012C14.8727 7.25012 14.7461 7.25366 14.6203 7.26064L14.7035 8.75833ZM15 19.2501C12.7122 19.2501 10.7644 17.7864 10.0457 15.742L8.63056 16.2395C9.55386 18.8657 12.0559 20.7501 15 20.7501V19.2501ZM10.0457 15.742C9.85437 15.1979 9.75 14.612 9.75 14.0001H8.25C8.25 14.7838 8.38385 15.5378 8.63056 16.2395L10.0457 15.742ZM9 4.75012C11.1511 4.75012 13.0017 6.04393 13.8128 7.89891L15.1872 7.29792C14.1458 4.91654 11.7684 3.25012 9 3.25012V4.75012ZM12.75 15.0001H17.25V13.5001H12.75V15.0001Z"
        fill="currentColor" />
</svg>