<svg width="34" height="34" viewBox="0 0 34 34" fill="none" xmlns="http://www.w3.org/2000/svg">
    <rect x="0.5" y="0.5" width="33" height="33" rx="16.5" stroke="black" stroke-opacity="0.16" />
    <path
        d="M17 33C25.8366 33 33 25.8366 33 17C33 8.16344 25.8366 1 17 1C8.16344 1 1 8.16344 1 17C1 25.8366 8.16344 33 17 33Z"
        fill="#6B7280" />
    <path d="M17.1181 12.9766L13.7402 14.9207V18.8126L17.1181 20.7644L20.496 18.8126V14.9207L17.1181 12.9766Z"
        fill="white" />
    <path d="M7.50216 23.0254L16.8591 28.4286L19.9781 23.0254H7.50216Z" fill="white" />
    <path d="M7.39397 11.1253L10.3622 16.2734L16.3026 5.98109L7.39397 11.1253Z" fill="white" />
    <path d="M14.2582 10.7195H26.1273L17.2303 5.57141L14.2582 10.7195Z" fill="white" />
    <path d="M21.0139 11.3147L26.9504 21.607V11.3147H21.0139Z" fill="white" />
    <path d="M23.8662 17.4677L17.9336 27.76L26.8345 22.6158L23.8662 17.4677Z" fill="white" />
    <path d="M7.28577 22.4264H13.2223L7.28577 12.1341V22.4264Z" fill="white" />
</svg>