<svg width="24" height="24" viewBox="0 0 24 24" fill="none" xmlns="http://www.w3.org/2000/svg">
    <path
        d="M19.25 21.25H5.75C5.19772 21.25 4.75 20.8023 4.75 20.25V19.75C4.75 19.1977 5.19771 18.75 5.75 18.75H19.25V2.75H5.75C5.19772 2.75 4.75 3.19772 4.75 3.75V20M11.5 9.25H12.5M9.75 13.75C9.75 13.75 9.75 12.25 12 12.25C14.25 12.25 14.25 13.75 14.25 13.75H9.75ZM13 9.25C13 9.80228 12.5523 10.25 12 10.25C11.4477 10.25 11 9.80228 11 9.25C11 8.69772 11.4477 8.25 12 8.25C12.5523 8.25 13 8.69772 13 9.25Z"
        stroke="currentColor" stroke-width="1.5" stroke-linecap="round" stroke-linejoin="round" />
</svg>