<svg width="21" height="20" viewBox="0 0 21 20" fill="none" xmlns="http://www.w3.org/2000/svg">
    <path fill-rule="evenodd" clip-rule="evenodd"
        d="M1.75 11.25H3V2.5H11.75V1.25H3C2.66848 1.25 2.35054 1.3817 2.11612 1.61612C1.8817 1.85054 1.75 2.16848 1.75 2.5V11.25ZM18 17.5V6.25H6.75V17.5H18ZM6.75 5H18C18.3315 5 18.6495 5.1317 18.8839 5.36612C19.1183 5.60054 19.25 5.91848 19.25 6.25V17.5C19.25 17.8315 19.1183 18.1495 18.8839 18.3839C18.6495 18.6183 18.3315 18.75 18 18.75H6.75C6.41848 18.75 6.10054 18.6183 5.86612 18.3839C5.6317 18.1495 5.5 17.8315 5.5 17.5V6.25C5.5 5.91848 5.6317 5.60054 5.86612 5.36612C6.10054 5.1317 6.41848 5 6.75 5Z"
        fill="#4B5563" />
</svg>