<svg width="21" height="24" viewBox="0 0 21 24" fill="none" xmlns="http://www.w3.org/2000/svg">
<path fill-rule="evenodd" clip-rule="evenodd" d="M10.2601 1.74025L1.56012 6.85789V17.1421L10.2601 22.2597L18.9601 17.1421V6.85789L10.2601 1.74025ZM10.7671 0.298222C10.4542 0.114135 10.0661 0.114134 9.7531 0.298222L0.5531 5.70999C0.247661 5.88966 0.0601196 6.21756 0.0601196 6.57192V17.428C0.0601196 17.7824 0.24766 18.1103 0.553099 18.29L9.7531 23.7017C10.066 23.8858 10.4542 23.8858 10.7671 23.7017L19.9671 18.29C20.2726 18.1103 20.4601 17.7824 20.4601 17.428V6.57192C20.4601 6.21756 20.2726 5.88966 19.9671 5.70999L10.7671 0.298222Z" fill="#333333"/>
<path d="M10.0068 6.14632C10.1632 6.05427 10.3573 6.05427 10.5138 6.14632L15.1161 8.85358C15.2688 8.94341 15.3626 9.10736 15.3626 9.28454V14.7154C15.3626 14.8925 15.2688 15.0565 15.1161 15.1463L10.5138 17.8536C10.3573 17.9456 10.1632 17.9456 10.0068 17.8536L5.40442 15.1463C5.2517 15.0565 5.15793 14.8925 5.15793 14.7154V9.28454C5.15793 9.10736 5.2517 8.94341 5.40442 8.85358L10.0068 6.14632Z" fill="#333333"/>
<path opacity="0.66" d="M5.15793 9.06644C5.15793 9.03589 5.1908 9.01662 5.21746 9.03154L10.2179 11.8291C10.2495 11.8468 10.269 11.8802 10.269 11.9164L10.269 17.9234C10.269 17.9621 10.2271 17.9861 10.1937 17.9665L5.28135 15.0823C5.20489 15.0374 5.15793 14.9554 5.15793 14.8667V9.06644Z" fill="white"/>
</svg>
