<svg width="20" height="20" viewBox="0 0 20 20" fill="none" xmlns="http://www.w3.org/2000/svg">
<rect x="0.25" y="0.25" width="19.5" height="19.5" rx="9.75" fill="white"/>
<path d="M10 4.33009L14.8125 7.16097L14.8125 12.839L10 15.6699L5.1875 12.839L5.1875 7.16097L10 4.33009Z" stroke="#333333"/>
<path d="M6.22577 7.7758L9.99999 5.55567L13.7742 7.7758V12.2242L9.99999 14.4443L6.22577 12.2242V7.7758ZM9.97464 14.4592C9.97467 14.4592 9.9747 14.4592 9.97473 14.4592L9.97464 14.4592ZM10.0253 5.54081L10.0253 5.54076L9.99999 5.49766L10.0253 5.54076C10.0253 5.54077 10.0253 5.54079 10.0253 5.54081Z" stroke="#333333" stroke-width="0.5"/>
<path d="M9.89866 6.93318C9.96125 6.89637 10.0389 6.89637 10.1015 6.93318L12.5589 8.37876C12.62 8.41469 12.6575 8.48027 12.6575 8.55114V11.4488C12.6575 11.5197 12.62 11.5853 12.5589 11.6212L10.1015 13.0668C10.0389 13.1036 9.96125 13.1036 9.89866 13.0668L7.44119 11.6212C7.3801 11.5853 7.34259 11.5197 7.34259 11.4488V8.55114C7.34259 8.48027 7.3801 8.41469 7.44119 8.37876L9.89866 6.93318Z" fill="#333333"/>
<path opacity="0.5" d="M12.6575 8.51279C12.6575 8.48224 12.6247 8.46297 12.598 8.47789L10.0558 9.90019C10.0242 9.91787 10.0046 9.95125 10.0046 9.98746L10.0046 13.0352C10.0046 13.0738 10.0466 13.0979 10.08 13.0783L12.5341 11.6374C12.6106 11.5925 12.6575 11.5104 12.6575 11.4218V8.51279Z" fill="white"/>
<rect x="0.25" y="0.25" width="19.5" height="19.5" rx="9.75" stroke="#9CA3AF" stroke-width="0.5"/>
</svg>
