<svg width="16" height="16" viewBox="0 0 16 16" fill="none" xmlns="http://www.w3.org/2000/svg">
  <path fill-rule="evenodd" clip-rule="evenodd"
    d="M3 14.0002H8V15.0002H3C2.73502 14.9994 2.48111 14.8938 2.29374 14.7064C2.10637 14.5191 2.00077 14.2652 2 14.0002V2.00017C2.00077 1.73519 2.10637 1.48128 2.29374 1.29391C2.48111 1.10654 2.73502 1.00094 3 1.00017H8C8.06572 0.998364 8.13105 1.01084 8.19147 1.03674C8.2519 1.06263 8.30599 1.10134 8.35 1.15017L11.85 4.65017C11.8988 4.6942 11.9375 4.74828 11.9634 4.80871C11.9893 4.86913 12.0018 4.93446 12 5.00017V7.50017H11V6.00017H8C7.73502 5.99941 7.48111 5.8938 7.29374 5.70643C7.10637 5.51906 7.00077 5.26515 7 5.00017V2.00017H3V14.0002ZM10.8 5.00017L8 2.20017V5.00017H10.8ZM10.4306 14.4939L11.5 15.0002L12.5694 14.4941C12.9966 14.2906 13.3575 13.9704 13.6107 13.5705C13.8638 13.1706 13.9988 12.7074 14 12.2341V9.00024H9V12.2341C9.00129 12.7073 9.13627 13.1706 9.3894 13.5704C9.64252 13.9702 10.0035 14.2903 10.4306 14.4939ZM10 12.2341V10.0002H13V12.2341C12.9992 12.518 12.9182 12.7959 12.7663 13.0357C12.6144 13.2755 12.3979 13.4675 12.1416 13.5896L11.5 13.8933L10.8584 13.5896C10.6021 13.4675 10.3856 13.2755 10.2337 13.0357C10.0818 12.7959 10.0008 12.518 10 12.2341Z"
    fill="currentColor" />
</svg>