<svg width="16" height="16" viewBox="0 0 16 16" fill="none" xmlns="http://www.w3.org/2000/svg">
  <path fill-rule="evenodd" clip-rule="evenodd"
    d="M3 15H6V14H3V2H11V6.5H12V2C11.9997 1.73487 11.8943 1.48068 11.7068 1.2932C11.5193 1.10572 11.2651 1.00028 11 1H3C2.73487 1.00028 2.48068 1.10572 2.2932 1.2932C2.10572 1.48068 2.00028 1.73487 2 2V14C2.00028 14.2651 2.10572 14.5193 2.2932 14.7068C2.48068 14.8943 2.73487 14.9997 3 15ZM4 3H10V4H4V3ZM9.70705 15H7.5V12.7929L10.0169 10.276C10.0057 10.1845 10.0001 10.0923 10 10C9.99968 9.49372 10.1531 8.99925 10.44 8.58205C10.7268 8.16485 11.1336 7.84457 11.6065 7.66361C12.0793 7.48265 12.596 7.44953 13.0881 7.56863C13.5802 7.68773 14.0245 7.95344 14.3623 8.3306C14.7001 8.70776 14.9154 9.17859 14.9797 9.68079C15.0441 10.183 14.9544 10.6929 14.7226 11.143C14.4908 11.5932 14.1278 11.9623 13.6816 12.2016C13.2354 12.4409 12.7271 12.5391 12.2239 12.4832L9.70705 15ZM8.5 14H9.29295L11.896 11.3969L12.1657 11.4588C12.4872 11.5354 12.8249 11.5049 13.1274 11.3721C13.43 11.2393 13.681 11.0113 13.8422 10.7229C14.0034 10.4344 14.066 10.1012 14.0206 9.77392C13.9752 9.44662 13.8241 9.14308 13.5905 8.90943C13.3568 8.67578 13.0533 8.52479 12.7259 8.47939C12.3986 8.43399 12.0654 8.49667 11.777 8.6579C11.4886 8.81913 11.2606 9.0701 11.1278 9.37269C10.995 9.67528 10.9646 10.0129 11.0413 10.3344L11.1031 10.604L8.5 13.2072V14ZM12.5 10.5C12.7761 10.5 13 10.2761 13 10C13 9.72386 12.7761 9.5 12.5 9.5C12.2239 9.5 12 9.72386 12 10C12 10.2761 12.2239 10.5 12.5 10.5ZM10 5H4V6H10V5ZM4 7H7V8H4V7ZM6 12H4V13H6V12Z"
    fill="currentColor" />
</svg>