<svg width="16" height="16" viewBox="0 0 16 16" fill="none" xmlns="http://www.w3.org/2000/svg">
    <path fill-rule="evenodd" clip-rule="evenodd"
        d="M10.7068 1.79323C10.8942 1.9807 10.9997 2.23488 11 2.5V6.5H2V9.5H6V10.5H2V13.5H10V14.5H2C1.73488 14.4997 1.4807 14.3942 1.29323 14.2068C1.10576 14.0193 1.0003 13.7651 1 13.5V2.5C1.0003 2.23488 1.10576 1.9807 1.29323 1.79323C1.4807 1.60576 1.73488 1.5003 2 1.5H10C10.2651 1.5003 10.5193 1.60576 10.7068 1.79323ZM10 2.5H2V5.5H10V2.5ZM3.5 4.5C3.77614 4.5 4 4.27614 4 4C4 3.72386 3.77614 3.5 3.5 3.5C3.22386 3.5 3 3.72386 3 4C3 4.27614 3.22386 4.5 3.5 4.5ZM13.5001 11C13.1213 11.0008 12.7571 11.1458 12.4814 11.4055L10.4794 10.2043C10.507 10.0695 10.507 9.93048 10.4794 9.79564L12.4814 8.59449C12.7339 8.8275 13.059 8.96645 13.4019 8.98797C13.7448 9.00948 14.0847 8.91226 14.3643 8.71264C14.644 8.51301 14.8464 8.22318 14.9375 7.89187C15.0286 7.56057 15.0028 7.208 14.8645 6.89347C14.7262 6.57894 14.4838 6.32163 14.178 6.16482C13.8723 6.00801 13.5219 5.96126 13.1857 6.03244C12.8496 6.10362 12.5482 6.28838 12.3323 6.55565C12.1164 6.82292 11.999 7.15639 12.0001 7.49999C12.0022 7.56859 12.0091 7.63696 12.0208 7.70459L10.0189 8.90574C9.80547 8.70564 9.53819 8.57231 9.24995 8.52218C8.96172 8.47204 8.66512 8.5073 8.39666 8.62359C8.12821 8.73988 7.89962 8.93214 7.73905 9.1767C7.57847 9.42126 7.49292 9.70743 7.49292 9.99999C7.49292 10.2926 7.57847 10.5787 7.73905 10.8233C7.89962 11.0678 8.12821 11.2601 8.39666 11.3764C8.66512 11.4927 8.96172 11.5279 9.24995 11.4778C9.53819 11.4277 9.80547 11.2943 10.0189 11.0942L12.0208 12.2954C12.0091 12.363 12.0022 12.4314 12.0001 12.5C12.0001 12.7967 12.0881 13.0867 12.2529 13.3333C12.4177 13.58 12.652 13.7723 12.9261 13.8858C13.2002 13.9993 13.5018 14.029 13.7927 13.9712C14.0837 13.9133 14.351 13.7704 14.5608 13.5607C14.7705 13.3509 14.9134 13.0836 14.9713 12.7926C15.0291 12.5017 14.9994 12.2001 14.8859 11.926C14.7724 11.6519 14.5801 11.4176 14.3334 11.2528C14.0868 11.088 13.7968 11 13.5001 11ZM13.5001 6.99999C13.599 6.99999 13.6957 7.02931 13.7779 7.08426C13.8601 7.1392 13.9242 7.21729 13.962 7.30865C13.9999 7.40001 14.0098 7.50055 13.9905 7.59754C13.9712 7.69453 13.9236 7.78362 13.8536 7.85354C13.7837 7.92347 13.6946 7.97109 13.5976 7.99038C13.5006 8.00968 13.4001 7.99977 13.3088 7.96193C13.2174 7.92409 13.1393 7.86 13.0844 7.77778C13.0294 7.69555 13.0001 7.59888 13.0001 7.49999C13.0002 7.36742 13.0529 7.24031 13.1467 7.14657C13.2404 7.05283 13.3675 7.00011 13.5001 6.99999ZM9.00009 10.5C8.9012 10.5 8.80453 10.4707 8.72231 10.4157C8.64008 10.3608 8.576 10.2827 8.53815 10.1913C8.50031 10.1 8.49041 9.99944 8.5097 9.90244C8.52899 9.80545 8.57661 9.71636 8.64654 9.64644C8.71646 9.57651 8.80556 9.52889 8.90255 9.5096C8.99954 9.4903 9.10007 9.50021 9.19143 9.53805C9.2828 9.57589 9.36089 9.63998 9.41583 9.72221C9.47077 9.80443 9.50009 9.9011 9.50009 9.99999C9.49997 10.1326 9.44726 10.2597 9.35351 10.3534C9.25977 10.4472 9.13266 10.4999 9.00009 10.5ZM13.5001 13C13.4012 13 13.3045 12.9707 13.2223 12.9157C13.1401 12.8608 13.076 12.7827 13.0382 12.6913C13.0003 12.6 12.9904 12.4994 13.0097 12.4024C13.029 12.3055 13.0766 12.2164 13.1465 12.1464C13.2165 12.0765 13.3056 12.0289 13.4025 12.0096C13.4995 11.9903 13.6001 12.0002 13.6914 12.0381C13.7828 12.0759 13.8609 12.14 13.9158 12.2222C13.9708 12.3044 14.0001 12.4011 14.0001 12.5C14 12.6326 13.9473 12.7597 13.8535 12.8534C13.7598 12.9472 13.6327 12.9999 13.5001 13ZM4 8C4 8.27614 3.77614 8.5 3.5 8.5C3.22386 8.5 3 8.27614 3 8C3 7.72386 3.22386 7.5 3.5 7.5C3.77614 7.5 4 7.72386 4 8ZM3.5 12.5C3.77614 12.5 4 12.2761 4 12C4 11.7239 3.77614 11.5 3.5 11.5C3.22386 11.5 3 11.7239 3 12C3 12.2761 3.22386 12.5 3.5 12.5Z"
        fill="currentColor" />
</svg>