<svg width="24" height="24" viewBox="0 0 24 24" fill="none" xmlns="http://www.w3.org/2000/svg">
    <path fill-rule="evenodd" clip-rule="evenodd"
        d="M16.0602 2.68984C16.3414 2.97105 16.4995 3.35232 16.5 3.75V9.75H3V14.25H9V15.75H3V20.25H15V21.75H3C2.60232 21.7495 2.22105 21.5914 1.93984 21.3102C1.65864 21.0289 1.50046 20.6477 1.5 20.25V3.75C1.50046 3.35232 1.65864 2.97105 1.93984 2.68984C2.22105 2.40864 2.60232 2.25046 3 2.25H15C15.3977 2.25046 15.779 2.40864 16.0602 2.68984ZM15 3.75H3V8.25H15V3.75ZM5.25 6.75C5.66421 6.75 6 6.41421 6 6C6 5.58579 5.66421 5.25 5.25 5.25C4.83579 5.25 4.5 5.58579 4.5 6C4.5 6.41421 4.83579 6.75 5.25 6.75ZM20.2501 16.5C19.682 16.5012 19.1357 16.7187 18.7221 17.1082L15.7192 15.3065C15.7605 15.1042 15.7605 14.8957 15.7192 14.6935L18.7221 12.8917C19.1009 13.2413 19.5884 13.4497 20.1028 13.482C20.6172 13.5142 21.127 13.3684 21.5465 13.069C21.966 12.7695 22.2696 12.3348 22.4062 11.8378C22.5429 11.3408 22.5042 10.812 22.2967 10.3402C22.0892 9.86841 21.7256 9.48245 21.267 9.24723C20.8084 9.01202 20.2828 8.94189 19.7786 9.04866C19.2744 9.15543 18.8223 9.43257 18.4984 9.83347C18.1745 10.2344 17.9986 10.7346 18.0001 11.25C18.0033 11.3529 18.0137 11.4554 18.0313 11.5569L15.0283 13.3586C14.7082 13.0585 14.3073 12.8585 13.8749 12.7833C13.4426 12.7081 12.9977 12.7609 12.595 12.9354C12.1923 13.1098 11.8494 13.3982 11.6086 13.765C11.3677 14.1319 11.2394 14.5611 11.2394 15C11.2394 15.4388 11.3677 15.8681 11.6086 16.2349C11.8494 16.6018 12.1923 16.8901 12.595 17.0646C12.9977 17.239 13.4426 17.2919 13.8749 17.2167C14.3073 17.1415 14.7082 16.9415 15.0283 16.6414L18.0313 18.4431C18.0137 18.5445 18.0033 18.6471 18.0001 18.75C18.0001 19.195 18.1321 19.63 18.3793 20C18.6266 20.37 18.978 20.6584 19.3891 20.8287C19.8002 20.999 20.2526 21.0436 20.6891 20.9568C21.1255 20.8699 21.5265 20.6556 21.8411 20.341C22.1558 20.0263 22.3701 19.6254 22.4569 19.1889C22.5437 18.7525 22.4992 18.3001 22.3289 17.8889C22.1586 17.4778 21.8702 17.1264 21.5002 16.8792C21.1302 16.6319 20.6951 16.5 20.2501 16.5ZM20.2501 10.5C20.3985 10.5 20.5435 10.544 20.6668 10.6264C20.7902 10.7088 20.8863 10.8259 20.943 10.963C20.9998 11.1 21.0147 11.2508 20.9857 11.3963C20.9568 11.5418 20.8854 11.6754 20.7805 11.7803C20.6756 11.8852 20.5419 11.9566 20.3965 11.9856C20.251 12.0145 20.1002 11.9997 19.9631 11.9429C19.8261 11.8861 19.7089 11.79 19.6265 11.6667C19.5441 11.5433 19.5001 11.3983 19.5001 11.25C19.5003 11.0511 19.5794 10.8605 19.72 10.7199C19.8606 10.5792 20.0513 10.5002 20.2501 10.5ZM13.5001 15.75C13.3518 15.75 13.2068 15.706 13.0835 15.6236C12.9601 15.5412 12.864 15.424 12.8072 15.287C12.7505 15.15 12.7356 14.9992 12.7645 14.8537C12.7935 14.7082 12.8649 14.5745 12.9698 14.4697C13.0747 14.3648 13.2083 14.2933 13.3538 14.2644C13.4993 14.2355 13.6501 14.2503 13.7871 14.3071C13.9242 14.3638 14.0413 14.46 14.1237 14.5833C14.2062 14.7066 14.2501 14.8516 14.2501 15C14.25 15.1988 14.1709 15.3895 14.0303 15.5301C13.8897 15.6707 13.699 15.7498 13.5001 15.75ZM20.2501 19.5C20.1018 19.5 19.9568 19.456 19.8335 19.3736C19.7101 19.2912 19.614 19.174 19.5572 19.037C19.5005 18.9 19.4856 18.7492 19.5145 18.6037C19.5435 18.4582 19.6149 18.3245 19.7198 18.2197C19.8247 18.1148 19.9583 18.0433 20.1038 18.0144C20.2493 17.9855 20.4001 18.0003 20.5371 18.0571C20.6742 18.1138 20.7913 18.21 20.8737 18.3333C20.9562 18.4566 21.0001 18.6016 21.0001 18.75C21 18.9488 20.9209 19.1395 20.7803 19.2801C20.6397 19.4207 20.449 19.4998 20.2501 19.5ZM6 12C6 12.4142 5.66421 12.75 5.25 12.75C4.83579 12.75 4.5 12.4142 4.5 12C4.5 11.5858 4.83579 11.25 5.25 11.25C5.66421 11.25 6 11.5858 6 12ZM5.25 18.75C5.66421 18.75 6 18.4142 6 18C6 17.5858 5.66421 17.25 5.25 17.25C4.83579 17.25 4.5 17.5858 4.5 18C4.5 18.4142 4.83579 18.75 5.25 18.75Z"
        fill="#6B7280" />
</svg>