<svg width="16" height="16" viewBox="0 0 16 16" fill="none" xmlns="http://www.w3.org/2000/svg">
    <path
        d="M11.8531 2.19084C12.1672 1.71716 12.0401 1.07175 11.5301 0.820938C10.2544 0.193692 8.82854 -0.0851394 7.39874 0.022627C5.62521 0.1563 3.9468 0.87716 2.62874 2.07129C1.31067 3.26543 0.428119 4.86474 0.120539 6.61649C-0.187041 8.36825 0.0978946 10.1726 0.930319 11.7443C1.76274 13.316 3.09519 14.5655 4.71709 15.2954C6.33899 16.0252 8.15786 16.1938 9.88626 15.7744C11.6147 15.3551 13.1541 14.3717 14.2612 12.9798C15.1537 11.8576 15.7242 10.5214 15.9221 9.11371C16.0012 8.55085 15.5388 8.08306 14.9704 8.07679C14.402 8.07053 13.9452 8.5297 13.8411 9.08848C13.6642 10.0376 13.2576 10.9348 12.6502 11.6985C11.8279 12.7323 10.6846 13.4627 9.40094 13.7741C8.11724 14.0856 6.76636 13.9604 5.56176 13.4183C4.35717 12.8763 3.36755 11.9482 2.74931 10.7809C2.13106 9.61357 1.91944 8.2735 2.14788 6.97246C2.37632 5.67142 3.0318 4.48361 4.01073 3.59671C4.98967 2.70982 6.23623 2.17444 7.55344 2.07516C8.52649 2.00182 9.49709 2.16956 10.3816 2.55655C10.9024 2.78439 11.5389 2.66451 11.8531 2.19084Z"
        fill="currentColor" />
</svg>