<svg width="24" height="24" viewBox="0 0 24 24" fill="none" xmlns="http://www.w3.org/2000/svg">
    <path
        d="M4.5 11V3.5C4.5 2.94772 4.94772 2.5 5.5 2.5H12.5858C12.851 2.5 13.1054 2.60536 13.2929 2.79289L19.2071 8.70711C19.3946 8.89464 19.5 9.149 19.5 9.41421V20.5C19.5 21.0523 19.0523 21.5 18.5 21.5H13.5M13 3V8C13 8.55228 13.4477 9 14 9H19M3.5 16.5H10.5V21.5H3.5V16.5ZM9.5 16.5V16C9.5 14.6193 8.38071 13.5 7 13.5C5.61929 13.5 4.5 14.6193 4.5 16V16.5H9.5Z"
        stroke="currentColor" stroke-linecap="round" stroke-linejoin="round" />
</svg>