<svg width="20" height="20" viewBox="0 0 20 20" fill="none" xmlns="http://www.w3.org/2000/svg">
    <path
        d="M12.5001 14.375H7.41256C7.35067 14.1558 7.26032 13.9457 7.14381 13.75L13.7501 7.14374C14.1263 7.37461 14.5586 7.49783 15.0001 7.49999C15.468 7.50151 15.9269 7.37167 16.3247 7.12525C16.7225 6.87883 17.0432 6.52571 17.2502 6.10607C17.4572 5.68643 17.5423 5.21711 17.4958 4.7515C17.4493 4.28589 17.273 3.84268 16.9871 3.47229C16.7011 3.10189 16.317 2.81918 15.8783 2.65632C15.4396 2.49345 14.9641 2.45697 14.5057 2.55102C14.0473 2.64507 13.6245 2.86588 13.2854 3.18833C12.9463 3.51078 12.7045 3.92192 12.5876 4.37499H7.41256C7.26044 3.78583 6.89867 3.27237 6.39505 2.93086C5.89144 2.58936 5.28057 2.44325 4.67693 2.51992C4.0733 2.59659 3.51835 2.89078 3.11611 3.34735C2.71386 3.80391 2.49194 4.39151 2.49194 4.99999C2.49194 5.60847 2.71386 6.19607 3.11611 6.65264C3.51835 7.1092 4.0733 7.40339 4.67693 7.48006C5.28057 7.55674 5.89144 7.41062 6.39505 7.06912C6.89867 6.72761 7.26044 6.21415 7.41256 5.62499H12.5876C12.6494 5.84417 12.7398 6.05429 12.8563 6.24999L6.25006 12.8562C5.87383 12.6254 5.44147 12.5021 5.00006 12.5C4.53213 12.4985 4.07317 12.6283 3.67539 12.8747C3.2776 13.1212 2.95696 13.4743 2.74994 13.8939C2.54291 14.3135 2.45782 14.7829 2.50433 15.2485C2.55084 15.7141 2.72709 16.1573 3.01304 16.5277C3.29898 16.8981 3.68314 17.1808 4.12181 17.3437C4.56048 17.5065 5.03606 17.543 5.49443 17.449C5.95281 17.3549 6.3756 17.1341 6.71469 16.8117C7.05378 16.4892 7.29557 16.0781 7.41256 15.625H12.5001V17.5H17.5001V12.5H12.5001V14.375ZM5.00006 6.24999C4.75283 6.24999 4.51116 6.17668 4.3056 6.03933C4.10003 5.90198 3.93982 5.70675 3.84521 5.47834C3.7506 5.24994 3.72584 4.9986 3.77408 4.75613C3.82231 4.51365 3.94136 4.29092 4.11617 4.11611C4.29099 3.94129 4.51372 3.82224 4.7562 3.77401C4.99867 3.72578 5.25 3.75053 5.47841 3.84514C5.70682 3.93975 5.90204 4.09997 6.0394 4.30553C6.17675 4.51109 6.25006 4.75276 6.25006 4.99999C6.25006 5.33151 6.11836 5.64945 5.88394 5.88387C5.64952 6.11829 5.33158 6.24999 5.00006 6.24999ZM15.0001 3.74999C15.2473 3.74999 15.489 3.8233 15.6945 3.96065C15.9001 4.09801 16.0603 4.29323 16.1549 4.52164C16.2495 4.75004 16.2743 5.00138 16.226 5.24385C16.1778 5.48633 16.0588 5.70906 15.8839 5.88387C15.7091 6.05869 15.4864 6.17774 15.2439 6.22597C15.0014 6.2742 14.7501 6.24945 14.5217 6.15484C14.2933 6.06023 14.0981 5.90001 13.9607 5.69445C13.8234 5.48889 13.7501 5.24722 13.7501 4.99999C13.7501 4.66847 13.8818 4.35053 14.1162 4.11611C14.3506 3.88169 14.6685 3.74999 15.0001 3.74999ZM5.00006 16.25C4.75283 16.25 4.51116 16.1767 4.3056 16.0393C4.10003 15.902 3.93982 15.7068 3.84521 15.4783C3.7506 15.2499 3.72584 14.9986 3.77408 14.7561C3.82231 14.5137 3.94136 14.2909 4.11617 14.1161C4.29099 13.9413 4.51372 13.8222 4.7562 13.774C4.99867 13.7258 5.25 13.7505 5.47841 13.8451C5.70682 13.9398 5.90204 14.1 6.0394 14.3055C6.17675 14.5111 6.25006 14.7528 6.25006 15C6.25006 15.3315 6.11836 15.6495 5.88394 15.8839C5.64952 16.1183 5.33158 16.25 5.00006 16.25ZM13.7501 13.75H16.2501V16.25H13.7501V13.75Z"
        fill="#4B5563" />
</svg>