<svg width="140" height="22" viewBox="0 0 140 22" fill="none" xmlns="http://www.w3.org/2000/svg">
<path d="M76.8481 16.5554V5.66626L73.707 11.1108L76.8481 16.5554Z" fill="url(#paint0_linear_507_4519)"/>
<path d="M58.0015 5.66619L58.0015 16.5553L61.1426 11.1107L58.0015 5.66619Z" fill="url(#paint1_linear_507_4519)"/>
<path d="M67.425 0.221655L58.0017 5.66621L64.2839 5.66621L67.425 0.221655Z" fill="#363A48"/>
<path d="M67.4251 21.9997L76.8484 16.5551L70.5662 16.5551L67.4251 21.9997Z" fill="url(#paint2_linear_507_4519)"/>
<path d="M67.4251 0.221655L76.8484 5.66622L70.5662 5.66621L67.4251 0.221655Z" fill="#363A48"/>
<path d="M67.4251 21.9997L58.0018 16.5552L64.2875 16.5552L67.4251 21.9997Z" fill="#363A48"/>
<path d="M61.143 11.1107L64.2841 16.5553H58.002L61.143 11.1107Z" fill="url(#paint3_linear_507_4519)"/>
<path d="M67.4248 11.1105L64.2837 12.9227L64.2837 9.29834L67.4248 11.1105Z" fill="url(#paint4_linear_507_4519)"/>
<path d="M70.5659 9.29849L67.4248 11.1106L67.4248 7.48633L70.5659 9.29849Z" fill="#363A48"/>
<path d="M64.2837 12.9228L67.4248 11.1107L67.4248 14.735L64.2837 12.9228Z" fill="#363A48"/>
<path d="M70.5659 12.9229L67.4248 14.735L67.4248 11.1107L70.5659 12.9229Z" fill="#363A48"/>
<path d="M64.2837 9.29856L67.4248 7.4864L67.4248 11.1107L64.2837 9.29856Z" fill="#363A48"/>
<path d="M67.4248 11.1106L70.5659 9.29842L70.5659 12.9227L67.4248 11.1106Z" fill="#363A48"/>
<path d="M73.7071 11.1107L70.566 5.66616L76.8481 5.66616L73.7071 11.1107Z" fill="url(#paint5_linear_507_4519)"/>
<path d="M73.707 11.1107L76.8481 16.5553H70.5659L73.707 11.1107Z" fill="url(#paint6_linear_507_4519)"/>
<path d="M61.1431 11.1107L58.002 5.66616L64.2842 5.66616L61.1431 11.1107Z" fill="#363A48"/>
<path d="M67.4248 21.9998L64.2837 16.5552L70.5659 16.5552L67.4248 21.9998Z" fill="#363A48"/>
<path d="M67.4253 0.221558L70.5664 5.66612L64.2842 5.66611L67.4253 0.221558Z" fill="#363A48"/>
<path d="M3.3891 11.0434H2.1591V8.47338H3.4391C4.4091 8.47338 4.9491 8.93338 4.9491 9.75338C4.9491 10.5734 4.3591 11.0434 3.3891 11.0434ZM1.0791 14.7134H2.1591V11.9534H3.4891C4.9391 11.9534 6.0291 11.0134 6.0291 9.75338C6.0291 8.50338 5.0291 7.57338 3.5391 7.57338H1.0791V14.7134ZM8.95035 14.8434C10.5004 14.8434 11.5704 13.7034 11.5704 12.1334C11.5704 10.5634 10.5004 9.41338 8.95035 9.41338C7.40035 9.41338 6.32035 10.5634 6.32035 12.1334C6.32035 13.7034 7.40035 14.8434 8.95035 14.8434ZM7.34035 12.1334C7.34035 11.1034 7.98035 10.2634 8.95035 10.2634C9.91035 10.2634 10.5604 11.1034 10.5604 12.1334C10.5604 13.1534 9.91035 13.9934 8.95035 13.9934C7.98035 13.9934 7.34035 13.1534 7.34035 12.1334ZM13.3197 14.7134H14.5097L15.3197 11.6834C15.4197 11.3034 15.4897 10.9734 15.5697 10.6134H15.5897L15.8497 11.6834L16.6597 14.7134H17.8497L19.3397 9.54338H18.2797L17.5397 12.4534C17.4497 12.8534 17.3597 13.2634 17.2697 13.6434H17.2597C17.1697 13.2534 17.0797 12.8334 16.9797 12.4534L16.2297 9.54338H14.9497L14.1897 12.4534C14.0897 12.8734 14.0297 13.2334 13.9297 13.6334H13.9197C13.8197 13.2234 13.7597 12.8734 13.6597 12.4734L12.9097 9.54338H11.8397L13.3197 14.7134ZM24.5464 13.1834H23.5364C23.3564 13.7534 22.8164 14.0034 22.1764 14.0034C21.3064 14.0034 20.6864 13.4034 20.6064 12.4134H24.6264V12.2234C24.6164 10.8234 23.9664 9.41338 22.1764 9.41338C20.6964 9.41338 19.6164 10.5434 19.6164 12.1034C19.6164 13.7334 20.6464 14.8434 22.1864 14.8434C23.3764 14.8434 24.2564 14.2534 24.5464 13.1834ZM20.6164 11.6434C20.7364 10.8034 21.2964 10.2334 22.1764 10.2334C23.0664 10.2334 23.5264 10.8234 23.6064 11.6434H20.6164ZM26.5303 9.54338H25.5103V14.7134H26.5403V12.3134C26.5403 10.8934 27.1003 10.6234 27.6503 10.5334C27.8003 10.4934 28.0303 10.4834 28.0803 10.4834V9.51338C27.3203 9.51338 26.8003 9.80338 26.5303 10.5434V9.54338ZM33.3796 13.1834H32.3696C32.1896 13.7534 31.6496 14.0034 31.0096 14.0034C30.1396 14.0034 29.5196 13.4034 29.4396 12.4134H33.4596V12.2234C33.4496 10.8234 32.7996 9.41338 31.0096 9.41338C29.5296 9.41338 28.4496 10.5434 28.4496 12.1034C28.4496 13.7334 29.4796 14.8434 31.0196 14.8434C32.2096 14.8434 33.0896 14.2534 33.3796 13.1834ZM29.4496 11.6434C29.5696 10.8034 30.1296 10.2334 31.0096 10.2334C31.8996 10.2334 32.3596 10.8234 32.4396 11.6434H29.4496ZM36.4035 9.41338C34.9635 9.41338 34.0235 10.4934 34.0235 12.1134C34.0235 13.7334 34.9635 14.8334 36.4035 14.8334C37.3235 14.8334 37.9235 14.2434 38.1135 13.7534H38.1235V14.7134H39.1735V7.57338H38.1335V10.5334H38.1235C37.9435 10.0234 37.3235 9.41338 36.4035 9.41338ZM35.0435 12.1134C35.0435 11.0534 35.6035 10.2634 36.6135 10.2634C37.6735 10.2634 38.1835 11.1534 38.1835 12.1134C38.1835 13.0934 37.6835 13.9834 36.6135 13.9834C35.5735 13.9834 35.0435 13.1834 35.0435 12.1134ZM45.2533 9.41338C44.3233 9.41338 43.7133 10.0234 43.5333 10.5334H43.5233V7.57338H42.4833V14.7134H43.5233V13.7534H43.5333C43.7233 14.2434 44.3333 14.8334 45.2433 14.8334C46.6833 14.8334 47.6333 13.7334 47.6333 12.1134C47.6333 10.4934 46.6933 9.41338 45.2533 9.41338ZM43.4633 12.1134C43.4633 11.1534 43.9733 10.2634 45.0333 10.2634C46.0533 10.2634 46.6033 11.0534 46.6033 12.1134C46.6033 13.1834 46.0733 13.9834 45.0333 13.9834C43.9633 13.9834 43.4633 13.0934 43.4633 12.1134ZM48.8801 9.54338H47.7901C48.4801 11.2834 49.1701 12.9834 49.9101 14.8434L49.7401 15.2734C49.6001 15.6334 49.5001 15.8734 49.0401 15.8734H48.4701V16.7134H49.2601C49.9601 16.7134 50.3501 16.3434 50.5801 15.7234C51.6301 12.8734 51.8701 12.3234 52.8901 9.54338H51.8001C51.3401 10.9334 50.8601 12.3434 50.4301 13.6634H50.4101C49.9001 12.2734 49.4001 10.9434 48.8801 9.54338ZM88.0332 12.5634H86.9632C86.6732 13.3634 85.9532 13.9334 84.7832 13.9334C83.1232 13.9334 82.2232 12.6634 82.2232 11.1434C82.2232 9.62338 83.1332 8.35338 84.7832 8.35338C85.9132 8.35338 86.5732 8.84338 86.9532 9.72338H88.0332C87.5932 8.38338 86.5732 7.44338 84.7832 7.44338C82.4932 7.44338 81.1432 9.09338 81.1432 11.1434C81.1432 13.2134 82.4832 14.8434 84.7732 14.8434C86.5832 14.8434 87.7332 13.8134 88.0332 12.5634ZM91.3671 14.8434C92.9171 14.8434 93.9871 13.7034 93.9871 12.1334C93.9871 10.5634 92.9171 9.41338 91.3671 9.41338C89.8171 9.41338 88.7371 10.5634 88.7371 12.1334C88.7371 13.7034 89.8171 14.8434 91.3671 14.8434ZM89.7571 12.1334C89.7571 11.1034 90.3971 10.2634 91.3671 10.2634C92.3271 10.2634 92.9771 11.1034 92.9771 12.1334C92.9771 13.1534 92.3271 13.9934 91.3671 13.9934C90.3971 13.9934 89.7571 13.1534 89.7571 12.1334ZM94.8263 14.7134H95.8563V12.2434C95.8563 10.9234 96.4563 10.2934 97.1963 10.2934C97.9063 10.2934 98.2363 10.7334 98.2363 11.5934V14.7134H99.2563V11.4234C99.2563 10.3034 98.7463 9.41338 97.3963 9.41338C96.5963 9.41338 96.1163 9.89338 95.8463 10.4834V9.54338H94.8263V14.7134ZM103.201 11.0934H104.201C104.091 9.97338 103.221 9.41338 102.161 9.41338C101.171 9.41338 100.211 9.98338 100.211 10.9434C100.211 11.7434 100.861 12.2134 101.661 12.4134C101.901 12.4834 102.151 12.5434 102.391 12.6034C102.851 12.7234 103.261 12.8634 103.261 13.2934C103.261 13.8334 102.721 14.0134 102.221 14.0134C101.571 14.0134 101.191 13.7534 101.081 13.1434H100.061C100.161 14.4034 101.241 14.8434 102.201 14.8434C103.201 14.8434 104.281 14.2934 104.281 13.2334C104.281 12.3934 103.561 12.0034 102.751 11.7934C102.521 11.7334 102.301 11.6834 102.061 11.6234C101.581 11.5034 101.221 11.2834 101.221 10.9034C101.221 10.5034 101.661 10.2334 102.131 10.2334C102.631 10.2334 103.141 10.4734 103.201 11.0934ZM106.384 13.1034V10.3634H107.384V9.54338H106.384V7.89338L105.374 8.34338V9.54338H104.584V10.3634H105.374V13.2034C105.374 14.0834 105.794 14.7234 106.894 14.7234H107.394V13.8834H107.044C106.594 13.8834 106.384 13.6034 106.384 13.1034ZM112.828 13.1834H111.818C111.638 13.7534 111.098 14.0034 110.458 14.0034C109.588 14.0034 108.968 13.4034 108.888 12.4134H112.908V12.2234C112.898 10.8234 112.248 9.41338 110.458 9.41338C108.978 9.41338 107.898 10.5434 107.898 12.1034C107.898 13.7334 108.928 14.8434 110.468 14.8434C111.658 14.8434 112.538 14.2534 112.828 13.1834ZM108.898 11.6434C109.018 10.8034 109.578 10.2334 110.458 10.2334C111.348 10.2334 111.808 10.8234 111.888 11.6434H108.898ZM113.792 7.57338V14.7134H114.822V7.57338H113.792ZM115.977 7.57338V14.7134H117.007V7.57338H115.977ZM118.142 11.1134H119.142C119.262 10.5734 119.702 10.2334 120.292 10.2334C120.982 10.2334 121.382 10.5134 121.382 10.9434C121.382 11.3734 121.122 11.5334 120.452 11.6434C119.692 11.7734 117.892 11.8534 117.892 13.3034C117.892 14.0834 118.502 14.8434 119.702 14.8434C120.802 14.8434 121.232 14.2234 121.382 13.8134H121.392V14.0334C121.392 14.2834 121.392 14.4934 121.412 14.7134H122.482C122.432 14.4334 122.402 13.9834 122.402 13.5934V11.4934C122.402 10.5334 122.082 9.40338 120.272 9.40338C118.922 9.40338 118.262 10.3234 118.142 11.1134ZM118.912 13.2834C118.912 12.8034 119.322 12.5934 120.052 12.4534C121.042 12.2834 121.292 11.9934 121.402 11.6834V12.3134C121.402 13.5634 120.672 14.0334 119.932 14.0334C119.312 14.0334 118.912 13.7334 118.912 13.2834ZM124.761 13.1034V10.3634H125.761V9.54338H124.761V7.89338L123.751 8.34338V9.54338H122.961V10.3634H123.751V13.2034C123.751 14.0834 124.171 14.7234 125.271 14.7234H125.771V13.8834H125.421C124.971 13.8834 124.761 13.6034 124.761 13.1034ZM127.714 8.64338V7.57338H126.634V8.64338H127.714ZM126.614 14.7134H127.644V9.54338H126.614V14.7134ZM131.187 14.8434C132.737 14.8434 133.807 13.7034 133.807 12.1334C133.807 10.5634 132.737 9.41338 131.187 9.41338C129.637 9.41338 128.557 10.5634 128.557 12.1334C128.557 13.7034 129.637 14.8434 131.187 14.8434ZM129.577 12.1334C129.577 11.1034 130.217 10.2634 131.187 10.2634C132.147 10.2634 132.797 11.1034 132.797 12.1334C132.797 13.1534 132.147 13.9934 131.187 13.9934C130.217 13.9934 129.577 13.1534 129.577 12.1334ZM134.647 14.7134H135.677V12.2434C135.677 10.9234 136.277 10.2934 137.017 10.2934C137.727 10.2934 138.057 10.7334 138.057 11.5934V14.7134H139.077V11.4234C139.077 10.3034 138.567 9.41338 137.217 9.41338C136.417 9.41338 135.937 9.89338 135.667 10.4834V9.54338H134.647V14.7134Z" fill="#363A48"/>
<defs>
<linearGradient id="paint0_linear_507_4519" x1="70.5642" y1="5.66626" x2="76.8464" y2="16.5554" gradientUnits="userSpaceOnUse">
<stop stop-color="#002A5F" stop-opacity="0.25"/>
<stop offset="1" stop-color="#002A5F"/>
</linearGradient>
<linearGradient id="paint1_linear_507_4519" x1="57.9997" y1="16.5553" x2="58.0015" y2="5.66619" gradientUnits="userSpaceOnUse">
<stop stop-color="#002A5F"/>
<stop offset="1" stop-color="#002A5F" stop-opacity="0.25"/>
</linearGradient>
<linearGradient id="paint2_linear_507_4519" x1="67.4251" y1="21.9997" x2="73.7055" y2="11.1105" gradientUnits="userSpaceOnUse">
<stop stop-color="#002A5F"/>
<stop offset="1" stop-color="#002A5F" stop-opacity="0.25"/>
</linearGradient>
<linearGradient id="paint3_linear_507_4519" x1="58.002" y1="5.67663" x2="58.0002" y2="16.5553" gradientUnits="userSpaceOnUse">
<stop stop-color="#002A5F" stop-opacity="0.25"/>
<stop offset="1" stop-color="#002A5F"/>
</linearGradient>
<linearGradient id="paint4_linear_507_4519" x1="64.2837" y1="9.28866" x2="65.8543" y2="11.8434" gradientUnits="userSpaceOnUse">
<stop stop-color="#002A5F" stop-opacity="0.25"/>
<stop offset="1" stop-color="#002A5F"/>
</linearGradient>
<linearGradient id="paint5_linear_507_4519" x1="70.5642" y1="5.66616" x2="76.8464" y2="16.5553" gradientUnits="userSpaceOnUse">
<stop stop-color="#002A5F"/>
<stop offset="1" stop-color="#002A5F" stop-opacity="0.25"/>
</linearGradient>
<linearGradient id="paint6_linear_507_4519" x1="67.4231" y1="21.9998" x2="73.707" y2="11.1107" gradientUnits="userSpaceOnUse">
<stop stop-color="#002A5F"/>
<stop offset="1" stop-color="#002A5F" stop-opacity="0.25"/>
</linearGradient>
</defs>
</svg>
