<svg width="24" height="24" viewBox="0 0 24 24" fill="none" xmlns="http://www.w3.org/2000/svg">
    <path fill-rule="evenodd" clip-rule="evenodd"
        d="M20 5.5C20 4.74631 19.5695 4.16346 19.0951 3.76283C18.616 3.35829 17.982 3.03902 17.2861 2.79049C15.8856 2.29032 14.0166 2 12 2C9.98341 2 8.1144 2.29032 6.71392 2.79049C6.01803 3.03902 5.38405 3.35829 4.90494 3.76283C4.43048 4.16346 4 4.74631 4 5.5V10C4 10.7537 4.43048 11.3365 4.90494 11.7372C5.38405 12.1417 6.01803 12.461 6.71392 12.7095C8.1144 13.2097 9.98341 13.5 12 13.5C14.0166 13.5 15.8856 13.2097 17.2861 12.7095C17.982 12.461 18.616 12.1417 19.0951 11.7372C19.5695 11.3365 20 10.7537 20 10V5.5ZM6.19525 5.29094C6.07042 5.39634 6.02321 5.46681 6.00633 5.5C6.02321 5.53319 6.07042 5.60366 6.19525 5.70906C6.42458 5.9027 6.81573 6.12215 7.38659 6.32603C8.5196 6.73067 10.1506 7 12 7C13.8494 7 15.4804 6.73067 16.6134 6.32603C17.1843 6.12215 17.5754 5.9027 17.8048 5.70906C17.9296 5.60366 17.9768 5.53319 17.9937 5.5C17.9768 5.46681 17.9296 5.39634 17.8048 5.29094C17.5754 5.0973 17.1843 4.87785 16.6134 4.67397C15.4804 4.26933 13.8494 4 12 4C10.1506 4 8.5196 4.26933 7.38659 4.67397C6.81573 4.87785 6.42458 5.0973 6.19525 5.29094Z"
        fill="currentColor" />
    <path
        d="M17.9588 14.593C18.6396 14.3498 19.3587 14.0201 20 13.5638V18.5C20 19.2537 19.5695 19.8365 19.0951 20.2372C18.616 20.6417 17.982 20.961 17.2861 21.2095C15.8856 21.7097 14.0166 22 12 22C9.98341 22 8.1144 21.7097 6.71392 21.2095C6.01803 20.961 5.38405 20.6417 4.90494 20.2372C4.43048 19.8365 4 19.2537 4 18.5V13.5638C4.6413 14.0201 5.3604 14.3498 6.04124 14.593C7.70922 15.1887 9.81624 15.5 12 15.5C14.1838 15.5 16.2908 15.1887 17.9588 14.593Z"
        fill="currentColor" />
</svg>