<svg width="24" height="24" viewBox="0 0 24 24" fill="none" xmlns="http://www.w3.org/2000/svg">
    <path
        d="M10.1578 8.83988L10.5863 9.30173L11.2138 9.24522L10.7519 9.67372L10.8084 10.3012L10.3799 9.83934L9.75246 9.89584L10.2143 9.46735L10.1578 8.83988Z"
        fill="currentColor" />
    <path
        d="M13.8144 9.03694L13.9099 8.62794L13.5842 8.89309L13.1752 8.79757L13.4403 9.1233L13.3448 9.5323L13.6705 9.26716L14.0795 9.36268L13.8144 9.03694Z"
        fill="currentColor" />
    <path
        d="M12.0932 7.01238L12.3812 7.79076L13.1596 8.07878L12.3812 8.36681L12.0932 9.14519L11.8051 8.36681L11.0268 8.07878L11.8051 7.79076L12.0932 7.01238Z"
        fill="currentColor" />
    <path fill-rule="evenodd" clip-rule="evenodd"
        d="M15.8256 14.2583C16.3588 13.7251 16.3588 11.3257 16.3588 11.3257C16.3588 8.9506 14.7985 5.59375 12.0931 5.59375C9.07355 5.59375 7.82754 8.9506 7.82754 11.3257C7.82754 11.3257 7.82754 13.7251 8.36082 14.2583C8.91685 14.8142 10.0936 15.1914 12.0931 15.1914C14.0926 15.1914 15.2131 14.8708 15.8256 14.2583ZM14.8796 11.8308C15.2479 11.6603 15.6481 11.4751 15.7973 11.0512C16.0624 10.2985 14.441 6.25 12.0931 6.25C9.47252 6.25 8.12902 10.5488 8.39368 11.0512C8.52606 11.3025 8.85682 11.4908 9.1875 11.6789C9.51796 11.867 9.84834 12.055 9.98051 12.3058C10.2449 12.8077 11.3027 13.0586 12.0954 13.0586C12.8881 13.0586 13.947 12.8077 14.2114 12.3058C14.3269 12.0866 14.5937 11.9631 14.8796 11.8308Z"
        fill="currentColor" />
    <path d="M13.0774 17.528V18.6637L12.0932 19.2315V16.9602L13.0774 17.528Z" fill="currentColor" />
    <path d="M12.0932 16.9602V19.2315L11.1088 18.6636V17.528L12.0932 16.9602Z" fill="currentColor" />
    <path fill-rule="evenodd" clip-rule="evenodd"
        d="M21.1865 6.25L12.0933 1L3 6.25V16.75L12.0933 22L21.1865 16.75V6.25ZM12.0933 2.13666L3.98438 6.81833V16.1817L4.93278 16.7292C5.33219 16.5873 7.66524 15.7656 8.15579 15.7656C8.15579 16.4219 10.4527 17.4062 10.4527 17.4062V19.0469L12.0933 20.0467L13.7339 19.0469V17.4062C13.7339 17.4062 16.0308 16.4219 16.0308 15.7656C16.5213 15.7656 18.8543 16.5872 19.2538 16.7292L20.2022 16.1817V6.81833L12.0933 2.13666Z"
        fill="currentColor" />
</svg>