<svg width="24" height="24" viewBox="0 0 24 24" fill="none" xmlns="http://www.w3.org/2000/svg">
    <path
        d="M19.2493 6.5V5.75C19.2493 5.19772 18.8016 4.75 18.2493 4.75H3.94922C3.25886 4.75 2.69922 5.30964 2.69922 6M2.69922 6L2.69922 17.25C2.69922 18.3546 3.59465 19.25 4.69922 19.25H20.1992C20.7515 19.25 21.1992 18.8023 21.1992 18.25V8.25C21.1992 7.69772 20.7515 7.25 20.1992 7.25H3.94922C3.25886 7.25 2.69922 6.69036 2.69922 6ZM17.2493 13.25C17.2493 13.6642 16.9135 14 16.4993 14C16.0851 14 15.7493 13.6642 15.7493 13.25C15.7493 12.8358 16.0851 12.5 16.4993 12.5C16.9135 12.5 17.2493 12.8358 17.2493 13.25Z"
        stroke="currentColor" stroke-width="1.5" stroke-linecap="round" stroke-linejoin="round" />
</svg>