<svg width="20" height="20" viewBox="0 0 20 20" fill="none" xmlns="http://www.w3.org/2000/svg">
    <path
        d="M10 1.25C8.26942 1.25 6.57769 1.76318 5.13876 2.72464C3.69983 3.6861 2.57832 5.05267 1.91606 6.65152C1.25379 8.25037 1.08051 10.0097 1.41813 11.707C1.75575 13.4044 2.58911 14.9635 3.81282 16.1872C5.03653 17.4109 6.59563 18.2442 8.29296 18.5819C9.9903 18.9195 11.7496 18.7462 13.3485 18.0839C14.9473 17.4217 16.3139 16.3002 17.2754 14.8612C18.2368 13.4223 18.75 11.7306 18.75 10C18.75 7.67936 17.8281 5.45376 16.1872 3.81282C14.5462 2.17187 12.3206 1.25 10 1.25ZM17.5 9.375H13.75C13.677 7.07318 13.0807 4.81822 12.0063 2.78125C13.4866 3.18619 14.8071 4.03553 15.7895 5.21464C16.7719 6.39375 17.3689 7.84587 17.5 9.375ZM10 17.5C9.86058 17.5094 9.72068 17.5094 9.58125 17.5C8.28643 15.4351 7.56782 13.0613 7.5 10.625H12.5C12.4378 13.0596 11.7257 15.4332 10.4375 17.5C10.2919 17.5102 10.1457 17.5102 10 17.5ZM7.5 9.375C7.56218 6.94042 8.27428 4.56676 9.5625 2.5C9.8408 2.46873 10.1217 2.46873 10.4 2.5C11.7014 4.563 12.4265 6.93691 12.5 9.375H7.5ZM7.975 2.78125C6.90706 4.81978 6.31716 7.07466 6.25 9.375H2.5C2.63107 7.84587 3.22809 6.39375 4.2105 5.21464C5.19291 4.03553 6.5134 3.18619 7.99375 2.78125H7.975ZM2.53125 10.625H6.28125C6.34648 12.9249 6.93424 15.1797 8 17.2188C6.52429 16.8095 5.20924 15.9582 4.2316 14.7795C3.25396 13.6007 2.66059 12.1509 2.53125 10.625ZM12.0063 17.2188C13.0807 15.1818 13.677 12.9268 13.75 10.625H17.5C17.3689 12.1541 16.7719 13.6062 15.7895 14.7854C14.8071 15.9645 13.4866 16.8138 12.0063 17.2188Z"
        fill="#3E4FEA" />
</svg>