<svg width="24" height="24" viewBox="0 0 24 24" fill="none" xmlns="http://www.w3.org/2000/svg">
<g clip-path="url(#clip0_490_52)">
<path d="M12 24C18.6274 24 24 18.6274 24 12C24 5.37258 18.6274 0 12 0C5.37258 0 0 5.37258 0 12C0 18.6274 5.37258 24 12 24Z" fill="#3E4FEA"/>
<path d="M12.0885 8.98242L9.55505 10.4404V13.3594L12.0885 14.8233L14.6219 13.3594V10.4404L12.0885 8.98242Z" fill="white"/>
<path d="M4.87659 16.519L11.8943 20.5714L14.2336 16.519H4.87659Z" fill="white"/>
<path d="M4.79541 7.59399L7.0216 11.4551L11.4769 3.73584L4.79541 7.59399Z" fill="white"/>
<path d="M9.94348 7.28976H18.8454L12.1726 3.42871L9.94348 7.28976Z" fill="white"/>
<path d="M15.0103 7.73633L19.4627 15.4556V7.73633H15.0103Z" fill="white"/>
<path d="M17.1496 12.3511L12.7001 20.0703L19.3758 16.2122L17.1496 12.3511Z" fill="white"/>
<path d="M4.71423 16.0698H9.16661L4.71423 8.35059V16.0698Z" fill="white"/>
</g>
<defs>
<clipPath id="clip0_490_52">
<rect width="24" height="24" fill="white"/>
</clipPath>
</defs>
</svg>
