<svg width="24" height="24" viewBox="0 0 24 24" fill="none" xmlns="http://www.w3.org/2000/svg">
    <path
        d="M12 24C18.6274 24 24 18.6274 24 12C24 5.37258 18.6274 0 12 0C5.37258 0 0 5.37258 0 12C0 18.6274 5.37258 24 12 24Z"
        fill="#6B7280" />
    <path d="M12.0885 8.9826L9.55504 10.4406V13.3596L12.0885 14.8235L14.6219 13.3596V10.4406L12.0885 8.9826Z"
        fill="white" />
    <path d="M4.87653 16.5192L11.8942 20.5716L14.2335 16.5192H4.87653Z" fill="white" />
    <path d="M4.79538 7.59412L7.02157 11.4552L11.4769 3.73597L4.79538 7.59412Z" fill="white" />
    <path d="M9.94353 7.28976H18.8454L12.1726 3.42871L9.94353 7.28976Z" fill="white" />
    <path d="M15.0103 7.73617L19.4627 15.4554V7.73617H15.0103Z" fill="white" />
    <path d="M17.1496 12.3509L12.7001 20.0701L19.3758 16.212L17.1496 12.3509Z" fill="white" />
    <path d="M4.71423 16.0699H9.16661L4.71423 8.35072V16.0699Z" fill="white" />
</svg>